<?xml version="1.0" encoding="UTF-8" standalone="no"?>
<svg
   version="1.1"
   id="svg1"
   width="16"
   height="16"
   viewBox="0 0 16 16"
   sodipodi:docname="application-exit.svg"
   inkscape:version="1.1 (c4e8f9ed74, 2021-05-24)"
   xmlns:inkscape="http://www.inkscape.org/namespaces/inkscape"
   xmlns:sodipodi="http://sodipodi.sourceforge.net/DTD/sodipodi-0.dtd"
   xmlns="http://www.w3.org/2000/svg"
   xmlns:svg="http://www.w3.org/2000/svg"
   xmlns:rdf="http://www.w3.org/1999/02/22-rdf-syntax-ns#"
   xmlns:cc="http://creativecommons.org/ns#"
   xmlns:dc="http://purl.org/dc/elements/1.1/">
  <metadata
     id="metadata21">
    <rdf:RDF>
      <cc:Work
         rdf:about="">
        <dc:format>image/svg+xml</dc:format>
        <dc:type
           rdf:resource="http://purl.org/dc/dcmitype/StillImage" />
      </cc:Work>
    </rdf:RDF>
  </metadata>
  <defs
     id="defs19">
    <inkscape:path-effect
       effect="offset"
       id="path-effect31"
       is_visible="true"
       linejoin_type="miter"
       unit="mm"
       offset="0.22568149"
       miter_limit="4"
       attempt_force_join="true"
       update_on_knot_move="true" />
  </defs>
  <sodipodi:namedview
     objecttolerance="10"
     gridtolerance="10"
     guidetolerance="10"
     id="namedview"
     showgrid="true"
     inkscape:zoom="15.78125"
     inkscape:cx="1.8376238"
     inkscape:cy="5.9881188"
     inkscape:window-width="1366"
     inkscape:window-height="768"
     inkscape:window-x="0"
     inkscape:window-y="0"
     inkscape:window-maximized="1"
     inkscape:current-layer="edit-delete"
     pagecolor="#505050"
     bordercolor="#eeeeee"
     borderopacity="1"
     inkscape:pageshadow="0"
     inkscape:pageopacity="0"
     inkscape:pagecheckerboard="0">
    <inkscape:grid
       type="xygrid"
       id="grid" />
  </sodipodi:namedview>
  <g
     id="edit-delete"
     inkscape:label="00384">
    <title
       id="title34114">edit-delete</title>
    <path
       inkscape:connector-curvature="0"
       id="gtk-remove"
       d="M 0,0 H 16 V 16 H 0 Z"
       style="opacity:0;fill:none" />
    <path
       d="M 8,0 C 3.5765152,0 0,3.5765037 0,8 c 0,4.423485 3.5765152,8 8,8 4.423485,0 8,-3.576515 8,-8 C 16,3.5765037 12.423485,0 8,0 Z M 4.5560538,11.443946 h 1.1479821 c 0.011904,0 0.023866,0 0.035874,0 0.2926792,-0.01286 0.5853216,-0.147607 0.7892377,-0.358744 L 8,9.6143498 9.5067265,11.085202 c 0.3049327,0.26461 0.5127715,0.350708 0.7892375,0.358744 h 1.147982 v -1.147982 c 0,-0.3288623 -0.03938,-0.6321362 -0.286995,-0.8609864 L 9.6860987,7.9641256 11.121076,6.529148 c 0.216039,-0.2160158 0.32287,-0.5205525 0.32287,-0.8251121 V 4.5560538 h -1.147982 c -0.3045607,1.15e-5 -0.6091031,0.1068771 -0.825112,0.32287 L 8,6.3497758 6.529148,4.8789238 C 6.3131391,4.662885 6.008584,4.5560538 5.7040359,4.5560538 H 4.5560538 v 1.1479821 c 0,0.3045481 0.1068312,0.6090963 0.32287,0.8251121 l 1.470852,1.4349776 -1.470852,1.470852 C 4.6369957,9.6584093 4.5309015,9.9736682 4.5560538,10.295964 Z"
       style="opacity:1;fill-rule:evenodd;stroke-width:1.14798;fill:#ffffff"
       id="path34118" />
  </g>
</svg>
