<?xml version="1.0" encoding="UTF-8" standalone="no"?>
<!-- Created with Inkscape (http://www.inkscape.org/) -->

<svg
   width="64"
   height="64"
   viewBox="0 0 16.933333 16.933334"
   version="1.1"
   id="svg5"
   inkscape:version="1.1 (c4e8f9ed74, 2021-05-24)"
   sodipodi:docname="graphs.svg"
   xmlns:inkscape="http://www.inkscape.org/namespaces/inkscape"
   xmlns:sodipodi="http://sodipodi.sourceforge.net/DTD/sodipodi-0.dtd"
   xmlns="http://www.w3.org/2000/svg"
   xmlns:svg="http://www.w3.org/2000/svg">
  <sodipodi:namedview
     id="namedview7"
     pagecolor="#505050"
     bordercolor="#eeeeee"
     borderopacity="1"
     inkscape:pageshadow="0"
     inkscape:pageopacity="0"
     inkscape:pagecheckerboard="0"
     inkscape:document-units="mm"
     showgrid="false"
     width="64px"
     units="px"
     inkscape:zoom="2.8284271"
     inkscape:cx="56.922096"
     inkscape:cy="20.32932"
     inkscape:window-width="1366"
     inkscape:window-height="768"
     inkscape:window-x="0"
     inkscape:window-y="0"
     inkscape:window-maximized="1"
     inkscape:current-layer="layer1"
     inkscape:snap-page="true"
     inkscape:object-paths="true" />
  <defs
     id="defs2" />
  <g
     inkscape:label="Calque 1"
     inkscape:groupmode="layer"
     id="layer1">
    <path
       id="path1097"
       style="color:#000000;fill:#ffffff;stroke-width:3.77953;stroke-linecap:round;stroke-linejoin:round;-inkscape-stroke:none"
       d="M 3.4394531 23.947266 A 3.3836411 3.3836411 0 0 0 1.0332031 24.892578 A 3.3836411 3.3836411 0 0 0 0.953125 29.675781 L 6.0605469 34.96875 L 9.5019531 28.796875 L 5.8164062 24.980469 A 3.3836411 3.3836411 0 0 0 3.4394531 23.947266 z M 60.925781 32.496094 A 3.3836411 3.3836411 0 0 0 58.449219 33.263672 L 43.154297 45.996094 L 23.511719 43.308594 L 20.386719 40.072266 L 16.945312 46.248047 L 19.458984 48.853516 A 3.3839794 3.3839794 0 0 0 21.4375 49.857422 L 43.714844 52.898438 A 3.3839794 3.3839794 0 0 0 46.335938 52.152344 L 62.783203 38.466797 A 3.3836411 3.3836411 0 0 0 63.21875 33.705078 A 3.3836411 3.3836411 0 0 0 60.925781 32.496094 z "
       transform="scale(0.26458333)" />
    <path
       style="fill:none;stroke:#ffffff;stroke-width:1.79051;stroke-linecap:round;stroke-linejoin:round;stroke-miterlimit:4;stroke-dasharray:none;stroke-opacity:1"
       d="M 0.89525571,14.598165 5.7925134,5.8130627 11.687297,8.9444864 16.038078,2.335168"
       id="path4367"
       sodipodi:nodetypes="cccc" />
  </g>
</svg>
