<?xml version="1.0" encoding="UTF-8" standalone="no"?>
<!-- Created with Inkscape (http://www.inkscape.org/) -->

<svg
   width="64"
   height="64"
   viewBox="0 0 16.933333 16.933334"
   version="1.1"
   id="svg5"
   inkscape:version="1.1 (c4e8f9ed74, 2021-05-24)"
   sodipodi:docname="map.svg"
   inkscape:export-filename="/home/ben/Prog/git/GPXSee/icons/GUI/map_32@2x.png"
   inkscape:export-xdpi="96"
   inkscape:export-ydpi="96"
   xmlns:inkscape="http://www.inkscape.org/namespaces/inkscape"
   xmlns:sodipodi="http://sodipodi.sourceforge.net/DTD/sodipodi-0.dtd"
   xmlns="http://www.w3.org/2000/svg"
   xmlns:svg="http://www.w3.org/2000/svg"
   xmlns:rdf="http://www.w3.org/1999/02/22-rdf-syntax-ns#"
   xmlns:cc="http://creativecommons.org/ns#"
   xmlns:dc="http://purl.org/dc/elements/1.1/">
  <sodipodi:namedview
     id="namedview7"
     pagecolor="#505050"
     bordercolor="#eeeeee"
     borderopacity="1"
     inkscape:pageshadow="0"
     inkscape:pageopacity="0"
     inkscape:pagecheckerboard="0"
     inkscape:document-units="mm"
     showgrid="false"
     units="px"
     width="64px"
     inkscape:object-paths="true"
     inkscape:zoom="6.1761358"
     inkscape:cx="0.97148123"
     inkscape:cy="42.664217"
     inkscape:window-width="1366"
     inkscape:window-height="768"
     inkscape:window-x="0"
     inkscape:window-y="0"
     inkscape:window-maximized="1"
     inkscape:current-layer="layer1" />
  <defs
     id="defs2" />
  <g
     inkscape:label="Calque 1"
     inkscape:groupmode="layer"
     id="layer1">
    <path
       id="rect5481"
       style="fill:#ffffff;stroke-width:0.677617;stroke-linecap:round;stroke-linejoin:round"
       d="M 5.7489767,1.8661081e-4 V 0.00347361 H 0.33660991 V 14.03026 H 5.7550037 l 5.4178453,2.902888 h 5.423874 V 2.9063614 H 11.172849 L 5.7604831,0.00621375 v -0.002739 h -0.00548 z" />
    <rect
       style="fill:#ffffff;stroke-width:0.677618;stroke-linecap:round;stroke-linejoin:round"
       id="rect980"
       width="5.4236903"
       height="14.026786"
       x="0.33674496"
       y="0.0032740959" />
    <rect
       style="fill:#cccccc;stroke-width:0.721764;stroke-linecap:round;stroke-linejoin:round"
       id="rect1616"
       width="6.1534085"
       height="14.026786"
       x="6.522716"
       y="-3.0809884"
       transform="matrix(0.88141242,0.47234749,0,1,0,0)" />
    <rect
       style="fill:#ffffff;stroke-width:0.677618;stroke-linecap:round;stroke-linejoin:round"
       id="rect3435"
       width="5.4236903"
       height="14.026786"
       x="11.172898"
       y="2.9064476" />
    <path
       id="path4651"
       style="fill:#cccccc;fill-opacity:1;fill-rule:evenodd;stroke-width:0.000187243"
       class="fil1"
       d="m 2.0931061,2.9212046 -0.1112279,0.077805 v 0.016437 l 0.033424,0.072325 z m -0.1884849,0.2438251 -0.055888,0.388476 -0.016437,0.1276656 0.1495826,0.3879285 -0.077805,0.05534 0.1331449,0.038902 0.033424,0.2942337 0.1331449,0.071777 -0.038355,0.094242 0.16602,0.055888 -0.11068,0.071777 0.11068,0.077805 0.038902,-0.1112279 0.072325,0.1276656 0.1112279,-0.038902 0.2049227,0.3550531 h 0.1112279 l 0.016437,0.088764 H 2.5369224 l 0.016986,0.1884849 0.094243,-0.021918 -0.038902,0.094243 0.072325,0.038902 -0.088764,0.3325883 0.11068,-0.05534 0.1665681,-0.05534 0.033424,0.1271178 0.1331448,-0.1830056 0.088764,0.2553313 0.221908,-0.2219082 0.2997129,0.05534 -0.3331362,0.3720386 0.072325,0.1660202 0.1830059,-0.016437 -0.1441034,0.088764 -0.022464,0.021918 -0.071778,0.6991478 -0.1501304,-0.033424 0.094243,0.6657244 -0.038902,0.088216 -0.05534,-0.071777 -0.1276656,0.094242 0.05534,0.2936858 0.055888,0.1501304 0.1495824,0.1441033 0.2219083,-0.088764 0.055888,-0.2054705 0.016437,0.1112282 0.4049137,-0.127666 -0.016437,0.2772484 h 0.1276657 l -0.2772482,0.033423 0.05534,0.1884849 0.050957,0.016986 -0.1232822,0.016437 -0.11068,0.1495824 0.1830058,-0.038902 0.054791,-0.1260221 0.1117761,0.037259 -0.088764,0.4438162 0.1994435,0.3660111 v 0.09424 l 0.09479,0.4268311 0.5161418,0.166569 0.4827189,0.238344 0.038902,0.150131 0.1994434,-0.0778 0.022464,-0.01644 0.2268396,0.102454 V 4.9205694 L 4.5516292,5.1950781 4.3850611,5.2728828 4.0908274,4.91783 4.0519249,4.8844066 3.9412449,4.8290665 3.3138747,4.5293537 3.2585348,4.4740136 3.1473065,4.3463479 2.9253987,4.0860854 2.8700585,4.1803277 V 4.1633418 L 2.4591177,4.052662 2.2596742,3.7918517 1.9818782,3.4039232 2.0153013,3.1650297 Z m 0.221908,0.1112278 -0.1276656,0.033424 0.016437,0.094242 0.1112279,0.016437 z m -0.3331361,0.5325794 -0.05534,0.05534 0.11068,0.077258 z m -0.05534,0.1660202 0.05534,0.1665682 0.054793,-0.1441031 v -0.022465 z m 0.3714906,0.7599671 0.1835535,0.2608104 0.021918,-0.1331448 z" />
    <path
       id="path4733"
       style="fill:#cccccc;fill-opacity:1;fill-rule:evenodd;stroke-width:0.000187243"
       class="fil1"
       d="m 11.172713,15.493297 0.249305,-0.146844 0.07178,0.127666 0.333137,-0.127666 -0.07232,0.16657 0.07232,0.05534 0.111228,-0.166567 0.499155,-0.238347 0.372039,-0.221907 0.333136,0.07232 -0.127665,-0.20547 0.421899,-0.387928 -0.222455,-0.111229 0.09479,-0.166019 0.293687,-0.05534 0.189032,-0.183007 -0.09424,-0.20547 0.388476,-0.03342 -0.260811,-0.133146 0.05534,-0.127118 0.0778,-0.238893 0.255331,-0.110679 0.05534,-0.188487 0.221909,-0.07232 0.0389,-0.221909 -0.150131,-0.37149 0.649287,-0.532579 -0.127118,-0.07726 0.127118,-0.199991 -0.07179,-0.07725 -0.05534,-0.07232 0.293685,-0.404914 -0.293685,-0.05534 -0.111228,-0.149583 0.05534,-0.260811 -0.09424,-0.294234 0.221909,-0.1830061 -0.183006,-0.4821878 0.183006,-0.26081 -0.149583,-0.016437 -0.221908,0.1495824 -0.183553,-0.077805 -0.07178,-0.1441033 -0.0778,-0.1106801 -0.255331,-0.038902 -0.166567,-0.166568 0.07232,-0.05534 -0.183553,-0.1276656 0.166568,-0.2049226 0.01698,-0.2219082 0.204923,-0.1830056 -0.388476,-0.981875 -0.05534,-0.094243 -0.0389,-0.3106714 0.15013,-0.038902 -0.09424,-0.4043659 -0.350121,-0.2219084 -0.149583,0.1660203 -0.0389,-0.2049227 h -0.127665 l 0.0389,0.094243 -0.149583,-0.022464 -0.0389,-0.1994434 -0.111228,0.033424 -0.571482,-0.1999913 -0.205471,0.072325 -0.221909,0.11068 h -0.03342 l 0.01644,-0.016437 0.01698,-0.1495824 -0.08877,-0.016986 -0.0778,-0.4268306 h -0.111227 l -0.08877,0.1665681 -0.110681,-0.072325 -0.02246,-0.1665681 -0.09917,0.03452 z" />
    <path
       id="path4729"
       style="fill:#b3b3b3;fill-opacity:1;fill-rule:evenodd;stroke-width:0.000187243"
       class="fil1"
       d="m 5.7493854,4.917144 v 5.684684 l 0.1780746,0.175973 0.016986,-0.135547 0.4103932,0.441837 -0.021918,-0.161328 0.1660201,0.03363 0.3166988,0.391627 0.11068,-0.123693 0.072325,0.03876 0.2608107,0.1173 0.05534,-0.0591 0.738598,0.562382 0.1495825,0.151938 0.3884763,0.374752 0.4608019,0.246943 -0.055888,-0.212954 0.1336929,0.01631 0.2219079,0.340829 0.088764,0.452481 -0.1446515,-0.06108 0.1112282,0.114945 0.016437,0.175377 -0.1106804,-0.02043 0.071777,0.149147 -0.088764,-0.0087 -0.077258,0.180506 -0.1276656,-0.06842 0.016437,0.341397 -0.1112282,0.05162 0.09479,0.177916 v -0.09424 l 0.3884761,0.452555 0.4438165,0.126661 0.1495826,0.168923 0.111226,0.114945 0.111227,0.115497 0.404915,0.144662 0.221908,0.191246 0.2504,-0.01321 V 5.1041611 l -0.156158,-0.02944 -0.204923,-0.1426938 -0.333136,-0.2009915 -0.277796,-0.3872162 -0.01644,-0.025246 -0.0389,-0.020847 v -0.022464 l 0.01644,0.0088 L 9.9787944,4.041894 9.7568864,3.9005093 9.7404464,3.7256801 9.4796354,3.7354901 9.4626494,3.7428301 8.9634959,3.3646526 8.9245935,3.3273673 8.8303503,3.3711049 8.2583168,2.9314106 8.202977,2.6075202 8.0917491,2.547913 8.1306512,2.7517666 8.0199709,2.8036813 7.9640829,2.8290715 7.4424619,2.7380207 7.3317815,2.6233668 7.0764503,2.7972067 7.0539858,2.9900905 6.87098,2.947363 6.7213976,3.0891102 6.593732,3.0206941 v 0.2942337 0.094242 l -0.2608108,0.4870545 0.05534,0.1956764 -0.1112278,0.3677721 -0.088764,0.046674 v 0.2547786 l -0.2608107,-0.045525 -0.05534,0.00925 0.016437,0.081135 -0.088764,-0.086472 -0.038902,0.2010606 z" />
  </g>
  <metadata
     id="metadata828">
    <rdf:RDF>
      <cc:Work
         rdf:about="">
        <dc:description>map from https://commons.wikimedia.org/wiki/File:Antarctica_(orthographic_projection).svg#/media/File:Antarctica_(orthographic_projection).svg</dc:description>
      </cc:Work>
    </rdf:RDF>
  </metadata>
</svg>
